<mxfile host="app.diagrams.net" modified="2021-01-14T16:53:40.602Z" agent="5.0 (Macintosh; Intel Mac OS X 10_13_6) AppleWebKit/537.36 (KHTML, like Gecko) Chrome/87.0.4280.141 Safari/537.36" etag="Yj2K86RayOM_s8aD3uMQ" version="14.2.3" type="github">
  <diagram id="llfRjVhpYQk1pcsOZ_1C" name="Page-1">
    <mxGraphModel dx="1426" dy="803" grid="1" gridSize="10" guides="1" tooltips="1" connect="1" arrows="1" fold="1" page="1" pageScale="1" pageWidth="827" pageHeight="1169" math="0" shadow="0">
      <root>
        <mxCell id="0" />
        <mxCell id="1" parent="0" />
        <mxCell id="mrAVVWmBJjdgPhhAWUY1-55" value="" style="edgeStyle=orthogonalEdgeStyle;rounded=0;orthogonalLoop=1;jettySize=auto;html=1;entryX=0.5;entryY=0;entryDx=0;entryDy=0;" edge="1" parent="1" source="mrAVVWmBJjdgPhhAWUY1-35" target="mrAVVWmBJjdgPhhAWUY1-43">
          <mxGeometry relative="1" as="geometry" />
        </mxCell>
        <mxCell id="mrAVVWmBJjdgPhhAWUY1-56" style="rounded=0;orthogonalLoop=1;jettySize=auto;html=1;entryX=0.5;entryY=0;entryDx=0;entryDy=0;" edge="1" parent="1" target="mrAVVWmBJjdgPhhAWUY1-36">
          <mxGeometry relative="1" as="geometry">
            <mxPoint x="393" y="600" as="sourcePoint" />
          </mxGeometry>
        </mxCell>
        <mxCell id="mrAVVWmBJjdgPhhAWUY1-35" value="" style="rounded=0;whiteSpace=wrap;html=1;fillColor=#f5f5f5;strokeColor=#666666;fontColor=#333333;" vertex="1" parent="1">
          <mxGeometry x="272.5" y="490" width="240" height="110" as="geometry" />
        </mxCell>
        <mxCell id="mrAVVWmBJjdgPhhAWUY1-21" value="" style="rounded=0;whiteSpace=wrap;html=1;fillColor=#f5f5f5;strokeColor=#666666;fontColor=#333333;" vertex="1" parent="1">
          <mxGeometry x="220" y="1460" width="368" height="60" as="geometry" />
        </mxCell>
        <mxCell id="mrAVVWmBJjdgPhhAWUY1-1" value="" style="edgeStyle=none;rounded=0;orthogonalLoop=1;jettySize=auto;html=1;entryX=0.5;entryY=0;entryDx=0;entryDy=0;" edge="1" parent="1" source="mrAVVWmBJjdgPhhAWUY1-2" target="mrAVVWmBJjdgPhhAWUY1-12">
          <mxGeometry relative="1" as="geometry" />
        </mxCell>
        <mxCell id="mrAVVWmBJjdgPhhAWUY1-2" value="推荐入口服务&lt;br&gt;(广州)" style="rounded=1;whiteSpace=wrap;html=1;fillColor=#f0a30a;strokeColor=#BD7000;fontColor=#ffffff;" vertex="1" parent="1">
          <mxGeometry x="486.5" y="1200" width="80" height="50" as="geometry" />
        </mxCell>
        <mxCell id="mrAVVWmBJjdgPhhAWUY1-3" value="" style="edgeStyle=none;rounded=0;orthogonalLoop=1;jettySize=auto;html=1;entryX=0.5;entryY=0;entryDx=0;entryDy=0;" edge="1" parent="1" source="mrAVVWmBJjdgPhhAWUY1-4" target="mrAVVWmBJjdgPhhAWUY1-10">
          <mxGeometry relative="1" as="geometry" />
        </mxCell>
        <mxCell id="mrAVVWmBJjdgPhhAWUY1-4" value="推荐入口服务&lt;br&gt;(天津)" style="rounded=1;whiteSpace=wrap;html=1;fillColor=#f0a30a;strokeColor=#BD7000;fontColor=#ffffff;" vertex="1" parent="1">
          <mxGeometry x="361.5" y="1200" width="80" height="50" as="geometry" />
        </mxCell>
        <mxCell id="mrAVVWmBJjdgPhhAWUY1-5" value="" style="edgeStyle=none;rounded=0;orthogonalLoop=1;jettySize=auto;html=1;entryX=0.5;entryY=0;entryDx=0;entryDy=0;" edge="1" parent="1" source="mrAVVWmBJjdgPhhAWUY1-6" target="mrAVVWmBJjdgPhhAWUY1-8">
          <mxGeometry relative="1" as="geometry" />
        </mxCell>
        <mxCell id="mrAVVWmBJjdgPhhAWUY1-6" value="推荐入口服务&lt;br&gt;(上海)" style="rounded=1;whiteSpace=wrap;html=1;fillColor=#f0a30a;strokeColor=#BD7000;fontColor=#ffffff;" vertex="1" parent="1">
          <mxGeometry x="241.5" y="1200" width="80" height="50" as="geometry" />
        </mxCell>
        <mxCell id="mrAVVWmBJjdgPhhAWUY1-7" value="" style="edgeStyle=none;rounded=0;orthogonalLoop=1;jettySize=auto;html=1;" edge="1" parent="1" source="mrAVVWmBJjdgPhhAWUY1-8" target="mrAVVWmBJjdgPhhAWUY1-13">
          <mxGeometry relative="1" as="geometry" />
        </mxCell>
        <mxCell id="mrAVVWmBJjdgPhhAWUY1-8" value="召回服务&lt;br&gt;(上海)" style="rounded=1;whiteSpace=wrap;html=1;fillColor=#fad9d5;strokeColor=#ae4132;" vertex="1" parent="1">
          <mxGeometry x="241.5" y="1280" width="80" height="50" as="geometry" />
        </mxCell>
        <mxCell id="mrAVVWmBJjdgPhhAWUY1-9" value="" style="edgeStyle=none;rounded=0;orthogonalLoop=1;jettySize=auto;html=1;" edge="1" parent="1" source="mrAVVWmBJjdgPhhAWUY1-10" target="mrAVVWmBJjdgPhhAWUY1-14">
          <mxGeometry relative="1" as="geometry" />
        </mxCell>
        <mxCell id="mrAVVWmBJjdgPhhAWUY1-10" value="召回服务&lt;br&gt;(天津)" style="rounded=1;whiteSpace=wrap;html=1;fillColor=#fad9d5;strokeColor=#ae4132;" vertex="1" parent="1">
          <mxGeometry x="364" y="1280" width="80" height="50" as="geometry" />
        </mxCell>
        <mxCell id="mrAVVWmBJjdgPhhAWUY1-11" value="" style="edgeStyle=none;rounded=0;orthogonalLoop=1;jettySize=auto;html=1;" edge="1" parent="1" source="mrAVVWmBJjdgPhhAWUY1-12" target="mrAVVWmBJjdgPhhAWUY1-15">
          <mxGeometry relative="1" as="geometry" />
        </mxCell>
        <mxCell id="mrAVVWmBJjdgPhhAWUY1-12" value="召回服务&lt;br&gt;(广州)" style="rounded=1;whiteSpace=wrap;html=1;fillColor=#fad9d5;strokeColor=#ae4132;" vertex="1" parent="1">
          <mxGeometry x="486.5" y="1280" width="80" height="50" as="geometry" />
        </mxCell>
        <mxCell id="mrAVVWmBJjdgPhhAWUY1-13" value="ElasticSearch&lt;br&gt;(上海)" style="rounded=0;whiteSpace=wrap;html=1;fillColor=#fff2cc;strokeColor=#d6b656;" vertex="1" parent="1">
          <mxGeometry x="239.5" y="1360" width="85" height="40" as="geometry" />
        </mxCell>
        <mxCell id="mrAVVWmBJjdgPhhAWUY1-14" value="ElasticSearch&lt;br&gt;(北京)" style="rounded=0;whiteSpace=wrap;html=1;fillColor=#fff2cc;strokeColor=#d6b656;" vertex="1" parent="1">
          <mxGeometry x="364" y="1360" width="85" height="40" as="geometry" />
        </mxCell>
        <mxCell id="mrAVVWmBJjdgPhhAWUY1-15" value="ElasticSearch&lt;br&gt;(广州)" style="rounded=0;whiteSpace=wrap;html=1;fillColor=#fff2cc;strokeColor=#d6b656;" vertex="1" parent="1">
          <mxGeometry x="484" y="1360" width="85" height="40" as="geometry" />
        </mxCell>
        <mxCell id="mrAVVWmBJjdgPhhAWUY1-23" value="" style="edgeStyle=orthogonalEdgeStyle;rounded=0;orthogonalLoop=1;jettySize=auto;html=1;" edge="1" parent="1" source="mrAVVWmBJjdgPhhAWUY1-18" target="mrAVVWmBJjdgPhhAWUY1-22">
          <mxGeometry relative="1" as="geometry" />
        </mxCell>
        <mxCell id="mrAVVWmBJjdgPhhAWUY1-24" value="异地容灾" style="edgeLabel;html=1;align=center;verticalAlign=middle;resizable=0;points=[];" vertex="1" connectable="0" parent="mrAVVWmBJjdgPhhAWUY1-23">
          <mxGeometry x="0.0538" y="4" relative="1" as="geometry">
            <mxPoint y="-4" as="offset" />
          </mxGeometry>
        </mxCell>
        <mxCell id="mrAVVWmBJjdgPhhAWUY1-18" value="" style="shape=cylinder3;whiteSpace=wrap;html=1;boundedLbl=1;backgroundOutline=1;size=15;" vertex="1" parent="1">
          <mxGeometry x="509.5" y="1470" width="47" height="40" as="geometry" />
        </mxCell>
        <mxCell id="mrAVVWmBJjdgPhhAWUY1-22" value="" style="shape=cylinder3;whiteSpace=wrap;html=1;boundedLbl=1;backgroundOutline=1;size=15;" vertex="1" parent="1">
          <mxGeometry x="369.5" y="1470" width="47" height="40" as="geometry" />
        </mxCell>
        <mxCell id="mrAVVWmBJjdgPhhAWUY1-25" value="广州读写" style="text;html=1;strokeColor=none;fillColor=none;align=center;verticalAlign=middle;whiteSpace=wrap;rounded=0;" vertex="1" parent="1">
          <mxGeometry x="509.5" y="1526" width="50" height="20" as="geometry" />
        </mxCell>
        <mxCell id="mrAVVWmBJjdgPhhAWUY1-26" value="上海读" style="text;html=1;strokeColor=none;fillColor=none;align=center;verticalAlign=middle;whiteSpace=wrap;rounded=0;" vertex="1" parent="1">
          <mxGeometry x="369.5" y="1526" width="50" height="20" as="geometry" />
        </mxCell>
        <mxCell id="mrAVVWmBJjdgPhhAWUY1-28" value="推荐入口服务&lt;br&gt;(上海)" style="rounded=1;whiteSpace=wrap;html=1;fillColor=#f0a30a;strokeColor=#BD7000;fontColor=#ffffff;" vertex="1" parent="1">
          <mxGeometry x="251.5" y="1210" width="80" height="50" as="geometry" />
        </mxCell>
        <mxCell id="mrAVVWmBJjdgPhhAWUY1-31" value="&lt;font style=&quot;font-size: 10px&quot;&gt;推荐入口服务&lt;br&gt;(南京)&lt;/font&gt;" style="rounded=1;whiteSpace=wrap;html=1;fillColor=#f0a30a;strokeColor=#BD7000;fontColor=#ffffff;" vertex="1" parent="1">
          <mxGeometry x="301" y="550" width="80" height="40" as="geometry" />
        </mxCell>
        <mxCell id="mrAVVWmBJjdgPhhAWUY1-57" value="" style="edgeStyle=none;rounded=0;orthogonalLoop=1;jettySize=auto;html=1;entryX=0.5;entryY=0;entryDx=0;entryDy=0;exitX=0.5;exitY=1;exitDx=0;exitDy=0;" edge="1" parent="1" source="mrAVVWmBJjdgPhhAWUY1-35" target="mrAVVWmBJjdgPhhAWUY1-51">
          <mxGeometry relative="1" as="geometry" />
        </mxCell>
        <mxCell id="mrAVVWmBJjdgPhhAWUY1-33" value="&lt;font style=&quot;font-size: 10px&quot;&gt;推荐入口服务&lt;br&gt;(广州)&lt;/font&gt;" style="rounded=1;whiteSpace=wrap;html=1;fillColor=#f0a30a;strokeColor=#BD7000;fontColor=#ffffff;" vertex="1" parent="1">
          <mxGeometry x="402.5" y="550" width="80" height="40" as="geometry" />
        </mxCell>
        <mxCell id="mrAVVWmBJjdgPhhAWUY1-34" value="&lt;font style=&quot;font-size: 10px&quot;&gt;推荐入口服务&lt;br&gt;(天津)&lt;/font&gt;" style="rounded=1;whiteSpace=wrap;html=1;fillColor=#f0a30a;strokeColor=#BD7000;fontColor=#ffffff;" vertex="1" parent="1">
          <mxGeometry x="352.5" y="500" width="80" height="40" as="geometry" />
        </mxCell>
        <mxCell id="mrAVVWmBJjdgPhhAWUY1-36" value="" style="rounded=0;whiteSpace=wrap;html=1;fillColor=#f5f5f5;strokeColor=#666666;fontColor=#333333;" vertex="1" parent="1">
          <mxGeometry x="34" y="660" width="220" height="110" as="geometry" />
        </mxCell>
        <mxCell id="mrAVVWmBJjdgPhhAWUY1-38" value="召回服务&lt;br&gt;(天津)" style="rounded=1;whiteSpace=wrap;html=1;fillColor=#fad9d5;strokeColor=#ae4132;" vertex="1" parent="1">
          <mxGeometry x="104" y="670" width="80" height="40" as="geometry" />
        </mxCell>
        <mxCell id="mrAVVWmBJjdgPhhAWUY1-41" value="召回服务&lt;br&gt;(南京)" style="rounded=1;whiteSpace=wrap;html=1;fillColor=#fad9d5;strokeColor=#ae4132;" vertex="1" parent="1">
          <mxGeometry x="44" y="720" width="80" height="40" as="geometry" />
        </mxCell>
        <mxCell id="mrAVVWmBJjdgPhhAWUY1-42" value="召回服务&lt;br&gt;(广州)" style="rounded=1;whiteSpace=wrap;html=1;fillColor=#fad9d5;strokeColor=#ae4132;" vertex="1" parent="1">
          <mxGeometry x="154" y="720" width="80" height="40" as="geometry" />
        </mxCell>
        <mxCell id="mrAVVWmBJjdgPhhAWUY1-43" value="" style="rounded=0;whiteSpace=wrap;html=1;fillColor=#f5f5f5;strokeColor=#666666;fontColor=#333333;" vertex="1" parent="1">
          <mxGeometry x="282.5" y="660" width="220" height="110" as="geometry" />
        </mxCell>
        <mxCell id="mrAVVWmBJjdgPhhAWUY1-44" value="画像服务&lt;br&gt;(天津)" style="rounded=1;whiteSpace=wrap;html=1;fillColor=#fff2cc;strokeColor=#d6b656;" vertex="1" parent="1">
          <mxGeometry x="352.5" y="670" width="80" height="40" as="geometry" />
        </mxCell>
        <mxCell id="mrAVVWmBJjdgPhhAWUY1-45" value="画像服务&lt;br&gt;(南京)" style="rounded=1;whiteSpace=wrap;html=1;fillColor=#fff2cc;strokeColor=#d6b656;" vertex="1" parent="1">
          <mxGeometry x="292.5" y="720" width="80" height="40" as="geometry" />
        </mxCell>
        <mxCell id="mrAVVWmBJjdgPhhAWUY1-46" value="画像服务&lt;br&gt;(广州)" style="rounded=1;whiteSpace=wrap;html=1;fillColor=#fff2cc;strokeColor=#d6b656;" vertex="1" parent="1">
          <mxGeometry x="402.5" y="720" width="80" height="40" as="geometry" />
        </mxCell>
        <mxCell id="mrAVVWmBJjdgPhhAWUY1-51" value="" style="rounded=0;whiteSpace=wrap;html=1;fillColor=#f5f5f5;strokeColor=#666666;fontColor=#333333;" vertex="1" parent="1">
          <mxGeometry x="529.5" y="660" width="220" height="110" as="geometry" />
        </mxCell>
        <mxCell id="mrAVVWmBJjdgPhhAWUY1-52" value="排序服务&lt;br&gt;(天津)" style="rounded=1;whiteSpace=wrap;html=1;fillColor=#dae8fc;strokeColor=#6c8ebf;" vertex="1" parent="1">
          <mxGeometry x="599.5" y="670" width="80" height="40" as="geometry" />
        </mxCell>
        <mxCell id="mrAVVWmBJjdgPhhAWUY1-53" value="排序服务&lt;br&gt;(南京)" style="rounded=1;whiteSpace=wrap;html=1;fillColor=#dae8fc;strokeColor=#6c8ebf;" vertex="1" parent="1">
          <mxGeometry x="539.5" y="720" width="80" height="40" as="geometry" />
        </mxCell>
        <mxCell id="mrAVVWmBJjdgPhhAWUY1-54" value="排序服务&lt;br&gt;(广州)" style="rounded=1;whiteSpace=wrap;html=1;fillColor=#dae8fc;strokeColor=#6c8ebf;" vertex="1" parent="1">
          <mxGeometry x="649.5" y="720" width="80" height="40" as="geometry" />
        </mxCell>
        <mxCell id="mrAVVWmBJjdgPhhAWUY1-59" value="" style="rounded=0;whiteSpace=wrap;html=1;" vertex="1" parent="1">
          <mxGeometry x="34" y="810" width="216" height="90" as="geometry" />
        </mxCell>
        <mxCell id="mrAVVWmBJjdgPhhAWUY1-62" value="文章ES&lt;br&gt;(天津)" style="rounded=0;whiteSpace=wrap;html=1;fillColor=#f0a30a;strokeColor=#BD7000;" vertex="1" parent="1">
          <mxGeometry x="100" y="820" width="78" height="30" as="geometry" />
        </mxCell>
        <mxCell id="mrAVVWmBJjdgPhhAWUY1-64" value="文章ES&lt;br&gt;(南京)" style="rounded=0;whiteSpace=wrap;html=1;fillColor=#f0a30a;strokeColor=#BD7000;" vertex="1" parent="1">
          <mxGeometry x="50" y="860" width="78" height="30" as="geometry" />
        </mxCell>
        <mxCell id="mrAVVWmBJjdgPhhAWUY1-65" value="文章ES&lt;br&gt;(广州)" style="rounded=0;whiteSpace=wrap;html=1;fillColor=#f0a30a;strokeColor=#BD7000;" vertex="1" parent="1">
          <mxGeometry x="140" y="860" width="78" height="30" as="geometry" />
        </mxCell>
      </root>
    </mxGraphModel>
  </diagram>
</mxfile>
